STARTFONT 2.1
FONT -Adobe-ITC Bookman-Light-I-Normal--17-120-100-100-P-94-ISO8859-1
SIZE 12 100 100
FONTBOUNDINGBOX 25 17 -4 -4

STARTPROPERTIES 26
_DEC_DEVICE_FONTNAMES "PS=Bookman-LightItalic"
FONTNAME_REGISTRY ""
FAMILY_NAME "ITC Bookman"
FOUNDRY "Adobe"
WEIGHT_NAME "Light"
SLANT "I"
SETWIDTH_NAME "Normal"
ADD_STYLE_NAME ""
PIXEL_SIZE 17
POINT_SIZE 120
RESOLUTION_X 100
RESOLUTION_Y 100
SPACING "P"
AVERAGE_WIDTH 94
CHARSET_REGISTRY "ISO8859"
CHARSET_ENCODING "1"
CHARSET_COLLECTIONS "ASCII ISO8859-1 ADOBE-STANDARD"
FULL_NAME "ITC Bookman Light Italic"
COPYRIGHT "Copyright (c) 1991 Adobe Systems, Inc."
CAP_HEIGHT 12
X_HEIGHT 8
WEIGHT 10
QUAD_WIDTH 12
DEFAULT_CHAR 0
FONT_DESCENT 4
FONT_ASCENT 13
ENDPROPERTIES

CHARS 190

STARTCHAR space
ENCODING 32
SWIDTH 300 0
DWIDTH 5 0
BBX 1 1 0 0
BITMAP
00
ENDCHAR

STARTCHAR exclam
ENCODING 33
SWIDTH 320 0
DWIDTH 5 0
BBX 4 12 1 0
BITMAP
30
30
30
70
60
60
40
40
40
00
C0
C0
ENDCHAR

STARTCHAR quotedbl
ENCODING 34
SWIDTH 360 0
DWIDTH 6 0
BBX 5 4 2 8
BITMAP
48
48
90
90
ENDCHAR

STARTCHAR numbersign
ENCODING 35
SWIDTH 620 0
DWIDTH 10 0
BBX 8 12 2 0
BITMAP
12
12
12
12
FF
24
24
FF
48
48
48
48
ENDCHAR

STARTCHAR dollar
ENCODING 36
SWIDTH 620 0
DWIDTH 10 0
BBX 10 15 1 -2
BITMAP
0200
0200
0F80
34C0
25C0
6480
7C00
3F00
0F80
4980
E900
CB00
7C00
1000
1000
ENDCHAR

STARTCHAR percent
ENCODING 37
SWIDTH 800 0
DWIDTH 13 0
BBX 12 12 1 0
BITMAP
3040
48C0
C980
8900
9B00
9660
6490
0D90
1910
1130
3120
20C0
ENDCHAR

STARTCHAR ampersand
ENCODING 38
SWIDTH 820 0
DWIDTH 14 0
BBX 13 12 1 0
BITMAP
0E00
1900
3100
3300
1E40
3CE0
6660
C640
C340
C198
E398
7CF0
ENDCHAR

STARTCHAR quoteright
ENCODING 39
SWIDTH 280 0
DWIDTH 4 0
BBX 2 4 2 8
BITMAP
C0
C0
40
80
ENDCHAR

STARTCHAR parenleft
ENCODING 40
SWIDTH 280 0
DWIDTH 5 0
BBX 5 14 1 -2
BITMAP
18
20
20
60
40
40
40
C0
80
80
80
80
C0
40
ENDCHAR

STARTCHAR parenright
ENCODING 41
SWIDTH 280 0
DWIDTH 5 0
BBX 5 14 -1 -2
BITMAP
10
18
08
08
08
08
18
10
10
10
30
20
20
C0
ENDCHAR

STARTCHAR asterisk
ENCODING 42
SWIDTH 440 0
DWIDTH 7 0
BBX 7 6 1 6
BITMAP
10
56
78
3C
D4
10
ENDCHAR

STARTCHAR plus
ENCODING 43
SWIDTH 600 0
DWIDTH 10 0
BBX 9 9 1 0
BITMAP
0800
0800
0800
0800
FF80
0800
0800
0800
0800
ENDCHAR

STARTCHAR comma
ENCODING 44
SWIDTH 300 0
DWIDTH 5 0
BBX 2 4 1 -2
BITMAP
C0
C0
40
80
ENDCHAR

STARTCHAR minus
ENCODING 45
SWIDTH 600 0
DWIDTH 10 0
BBX 8 1 2 4
BITMAP
FF
ENDCHAR

STARTCHAR period
ENCODING 46
SWIDTH 300 0
DWIDTH 5 0
BBX 2 2 1 0
BITMAP
C0
C0
ENDCHAR

STARTCHAR slash
ENCODING 47
SWIDTH 600 0
DWIDTH 10 0
BBX 9 15 1 -3
BITMAP
0180
0100
0300
0200
0600
0400
0C00
0800
1800
1000
3000
2000
6000
4000
C000
ENDCHAR

STARTCHAR zero
ENCODING 48
SWIDTH 620 0
DWIDTH 10 0
BBX 9 12 1 0
BITMAP
0E00
3100
2180
6180
4180
C180
C180
C100
C300
C200
4600
3800
ENDCHAR

STARTCHAR one
ENCODING 49
SWIDTH 620 0
DWIDTH 10 0
BBX 6 12 1 0
BITMAP
0C
3C
0C
0C
18
18
18
18
30
30
30
FC
ENDCHAR

STARTCHAR two
ENCODING 50
SWIDTH 620 0
DWIDTH 10 0
BBX 9 12 1 0
BITMAP
1E00
3300
6180
6180
0380
0300
0600
0C00
3000
6100
FF00
FE00
ENDCHAR

STARTCHAR three
ENCODING 51
SWIDTH 620 0
DWIDTH 10 0
BBX 9 12 1 0
BITMAP
1F00
3180
6180
6180
0300
1E00
0300
0300
4100
C300
E600
7C00
ENDCHAR

STARTCHAR four
ENCODING 52
SWIDTH 620 0
DWIDTH 10 0
BBX 10 12 0 0
BITMAP
0080
0180
0380
0580
0B00
1300
2300
4300
FFC0
0600
0600
1F80
ENDCHAR

STARTCHAR five
ENCODING 53
SWIDTH 620 0
DWIDTH 10 0
BBX 10 12 0 0
BITMAP
1FC0
1F80
1000
2000
2F00
7380
4180
0180
4180
C300
E600
7800
ENDCHAR

STARTCHAR six
ENCODING 54
SWIDTH 620 0
DWIDTH 10 0
BBX 9 12 1 0
BITMAP
0F00
3180
2180
6000
4E00
F300
E180
C180
C180
C100
6700
3C00
ENDCHAR

STARTCHAR seven
ENCODING 55
SWIDTH 620 0
DWIDTH 10 0
BBX 9 12 2 0
BITMAP
7F80
7F00
8200
0400
0C00
0800
1800
3000
3000
6000
6000
6000
ENDCHAR

STARTCHAR eight
ENCODING 56
SWIDTH 620 0
DWIDTH 10 0
BBX 10 12 0 0
BITMAP
0F80
18C0
3040
20C0
3980
1E00
6780
C180
8080
C180
6300
3E00
ENDCHAR

STARTCHAR nine
ENCODING 57
SWIDTH 620 0
DWIDTH 10 0
BBX 9 12 1 0
BITMAP
1E00
7300
4180
C180
C180
C380
6780
3900
0300
C200
C600
7800
ENDCHAR

STARTCHAR colon
ENCODING 58
SWIDTH 300 0
DWIDTH 5 0
BBX 3 8 1 0
BITMAP
60
60
00
00
00
00
C0
C0
ENDCHAR

STARTCHAR semicolon
ENCODING 59
SWIDTH 300 0
DWIDTH 5 0
BBX 3 10 1 -2
BITMAP
60
60
00
00
00
00
C0
C0
40
80
ENDCHAR

STARTCHAR less
ENCODING 60
SWIDTH 600 0
DWIDTH 10 0
BBX 9 9 1 0
BITMAP
0080
0300
0C00
3000
C000
3000
0C00
0300
0080
ENDCHAR

STARTCHAR equal
ENCODING 61
SWIDTH 600 0
DWIDTH 10 0
BBX 8 4 1 3
BITMAP
FF
00
00
FF
ENDCHAR

STARTCHAR greater
ENCODING 62
SWIDTH 600 0
DWIDTH 10 0
BBX 9 9 1 0
BITMAP
8000
6000
1800
0600
0180
0600
1800
6000
8000
ENDCHAR

STARTCHAR question
ENCODING 63
SWIDTH 540 0
DWIDTH 9 0
BBX 9 12 1 0
BITMAP
1E00
6300
C180
C380
0300
0E00
1800
2000
2000
0000
6000
6000
ENDCHAR

STARTCHAR at
ENCODING 64
SWIDTH 780 0
DWIDTH 13 0
BBX 12 12 1 0
BITMAP
0F80
3060
4320
4CD0
8890
9990
9110
9120
5B60
4C80
3060
0F80
ENDCHAR

STARTCHAR A
ENCODING 65
SWIDTH 700 0
DWIDTH 11 0
BBX 12 12 -1 0
BITMAP
0180
0180
0380
0580
04C0
08C0
08C0
1FC0
1060
2060
6060
F0F0
ENDCHAR

STARTCHAR B
ENCODING 66
SWIDTH 720 0
DWIDTH 12 0
BBX 12 12 0 0
BITMAP
3FE0
1870
1830
1830
3060
3FC0
30E0
3060
6060
6060
60C0
FF80
ENDCHAR

STARTCHAR C
ENCODING 67
SWIDTH 720 0
DWIDTH 12 0
BBX 11 12 1 0
BITMAP
07A0
1860
3020
6020
6000
C000
C000
C000
C020
6040
60C0
1F00
ENDCHAR

STARTCHAR D
ENCODING 68
SWIDTH 740 0
DWIDTH 12 0
BBX 13 12 0 0
BITMAP
3FC0
1830
1810
1818
3018
3018
3018
3030
6030
6060
60C0
FF00
ENDCHAR

STARTCHAR E
ENCODING 69
SWIDTH 680 0
DWIDTH 11 0
BBX 11 12 0 0
BITMAP
3FE0
1860
1820
1920
3300
3E00
3600
3200
6040
60C0
6180
FF80
ENDCHAR

STARTCHAR F
ENCODING 70
SWIDTH 620 0
DWIDTH 10 0
BBX 11 12 0 0
BITMAP
3FE0
1860
1820
1920
3300
3E00
3600
3200
6000
6000
6000
F000
ENDCHAR

STARTCHAR G
ENCODING 71
SWIDTH 760 0
DWIDTH 12 0
BBX 12 12 1 0
BITMAP
07A0
1860
3020
6020
6000
C000
C1F0
C060
C060
60C0
61C0
1E40
ENDCHAR

STARTCHAR H
ENCODING 72
SWIDTH 800 0
DWIDTH 13 0
BBX 14 12 0 0
BITMAP
3C3C
1818
1818
1818
3030
3FF0
3030
3030
6060
6060
6060
F0F0
ENDCHAR

STARTCHAR I
ENCODING 73
SWIDTH 320 0
DWIDTH 5 0
BBX 6 12 0 0
BITMAP
3C
18
18
18
30
30
30
30
60
60
60
F0
ENDCHAR

STARTCHAR J
ENCODING 74
SWIDTH 560 0
DWIDTH 9 0
BBX 10 12 0 0
BITMAP
03C0
0180
0180
0180
0300
0300
0300
C300
C300
8600
C600
7C00
ENDCHAR

STARTCHAR K
ENCODING 75
SWIDTH 720 0
DWIDTH 12 0
BBX 13 12 1 0
BITMAP
3CF8
1860
1840
1880
3100
3600
3B00
3300
6180
6180
60C0
F1F0
ENDCHAR

STARTCHAR L
ENCODING 76
SWIDTH 580 0
DWIDTH 10 0
BBX 10 12 0 0
BITMAP
3C00
1800
1800
1800
3000
3000
3000
3000
6040
60C0
6180
FF80
ENDCHAR

STARTCHAR M
ENCODING 77
SWIDTH 860 0
DWIDTH 14 0
BBX 16 12 -1 0
BITMAP
3C0F
1C0E
1C1C
1C1C
262C
262C
264C
2698
4398
4318
4318
E23C
ENDCHAR

STARTCHAR N
ENCODING 78
SWIDTH 720 0
DWIDTH 12 0
BBX 12 12 1 0
BITMAP
3870
1820
1C20
1C20
2E40
2640
2740
2340
4380
4180
4180
E080
ENDCHAR

STARTCHAR O
ENCODING 79
SWIDTH 760 0
DWIDTH 13 0
BBX 12 12 1 0
BITMAP
0780
1860
3060
6030
6030
C030
C030
C060
C060
60C0
6180
1E00
ENDCHAR

STARTCHAR P
ENCODING 80
SWIDTH 600 0
DWIDTH 10 0
BBX 11 12 0 0
BITMAP
3FC0
1860
1860
1860
3060
30C0
3F80
3000
6000
6000
6000
F000
ENDCHAR

STARTCHAR Q
ENCODING 81
SWIDTH 780 0
DWIDTH 13 0
BBX 12 15 1 -3
BITMAP
0780
1860
3060
6030
6030
C030
C030
C060
C060
67C0
69C0
1EC0
4180
C300
7C00
ENDCHAR

STARTCHAR R
ENCODING 82
SWIDTH 700 0
DWIDTH 12 0
BBX 11 12 0 0
BITMAP
3FC0
1860
1860
1860
30C0
31C0
3F00
3300
6180
6180
60C0
F0E0
ENDCHAR

STARTCHAR S
ENCODING 83
SWIDTH 640 0
DWIDTH 11 0
BBX 10 12 1 0
BITMAP
1F40
31C0
60C0
6040
7800
3F00
0780
81C0
80C0
C180
E380
BE00
ENDCHAR

STARTCHAR T
ENCODING 84
SWIDTH 600 0
DWIDTH 10 0
BBX 11 12 1 0
BITMAP
7FE0
6660
C620
8620
0C00
0C00
0C00
0C00
1800
1800
1800
3C00
ENDCHAR

STARTCHAR U
ENCODING 85
SWIDTH 720 0
DWIDTH 12 0
BBX 13 12 1 0
BITMAP
7878
3030
3020
6020
6040
6040
6040
C040
C080
C080
6100
3E00
ENDCHAR

STARTCHAR V
ENCODING 86
SWIDTH 680 0
DWIDTH 11 0
BBX 11 12 1 0
BITMAP
F0E0
6040
6080
6080
3100
3100
3200
3200
3400
1800
1800
1000
ENDCHAR

STARTCHAR W
ENCODING 87
SWIDTH 960 0
DWIDTH 16 0
BBX 17 12 1 0
BITMAP
F3E780
618200
618200
30C400
31C400
32C800
32C800
34D000
186000
186000
186000
104000
ENDCHAR

STARTCHAR X
ENCODING 88
SWIDTH 700 0
DWIDTH 12 0
BBX 13 12 0 0
BITMAP
3E78
1C20
0C40
0680
0700
0300
0300
0580
0980
10C0
20E0
F1F0
ENDCHAR

STARTCHAR Y
ENCODING 89
SWIDTH 660 0
DWIDTH 11 0
BBX 12 12 1 0
BITMAP
F0F0
6040
3080
3100
1900
1A00
1C00
0C00
0C00
1800
1800
3C00
ENDCHAR

STARTCHAR Z
ENCODING 90
SWIDTH 580 0
DWIDTH 10 0
BBX 11 12 0 0
BITMAP
1FE0
1860
30C0
2180
0300
0600
0C00
1800
3040
60C0
C180
FF80
ENDCHAR

STARTCHAR bracketleft
ENCODING 91
SWIDTH 260 0
DWIDTH 4 0
BBX 6 14 0 -2
BITMAP
1C
10
10
20
20
20
20
40
40
40
40
80
80
E0
ENDCHAR

STARTCHAR backslash
ENCODING 92
SWIDTH 600 0
DWIDTH 10 0
BBX 6 12 2 0
BITMAP
80
80
40
40
20
20
10
10
08
08
04
04
ENDCHAR

STARTCHAR bracketright
ENCODING 93
SWIDTH 260 0
DWIDTH 4 0
BBX 6 14 -1 -2
BITMAP
1C
04
04
08
08
08
08
10
10
10
10
20
20
E0
ENDCHAR

STARTCHAR asciicircum
ENCODING 94
SWIDTH 600 0
DWIDTH 10 0
BBX 8 8 1 4
BITMAP
18
18
24
24
42
42
81
81
ENDCHAR

STARTCHAR underscore
ENCODING 95
SWIDTH 500 0
DWIDTH 8 0
BBX 8 1 0 -3
BITMAP
FF
ENDCHAR

STARTCHAR quoteleft
ENCODING 96
SWIDTH 280 0
DWIDTH 4 0
BBX 2 4 2 8
BITMAP
40
80
C0
C0
ENDCHAR

STARTCHAR a
ENCODING 97
SWIDTH 620 0
DWIDTH 10 0
BBX 9 8 1 0
BITMAP
1F80
7180
6300
C300
C300
C600
C680
7B00
ENDCHAR

STARTCHAR b
ENCODING 98
SWIDTH 600 0
DWIDTH 10 0
BBX 9 12 1 0
BITMAP
3000
F000
3000
6000
6F00
7180
6180
6180
C180
C300
C700
BC00
ENDCHAR

STARTCHAR c
ENCODING 99
SWIDTH 480 0
DWIDTH 8 0
BBX 8 8 1 0
BITMAP
1E
73
62
C0
C0
C0
C2
7C
ENDCHAR

STARTCHAR d
ENCODING 100
SWIDTH 640 0
DWIDTH 10 0
BBX 10 12 1 0
BITMAP
00C0
03C0
00C0
0180
1F80
7180
6180
C300
C300
C300
C740
7B80
ENDCHAR

STARTCHAR e
ENCODING 101
SWIDTH 540 0
DWIDTH 9 0
BBX 9 8 1 0
BITMAP
1F00
7180
6180
C300
FC00
C000
C200
7C00
ENDCHAR

STARTCHAR f
ENCODING 102
SWIDTH 340 0
DWIDTH 6 0
BBX 13 16 -4 -4
BITMAP
0070
0098
0190
0180
07E0
0180
0300
0300
0300
0300
0300
0600
0600
4600
CC00
7800
ENDCHAR

STARTCHAR g
ENCODING 103
SWIDTH 560 0
DWIDTH 9 0
BBX 10 12 -1 -4
BITMAP
0EC0
39C0
30C0
6080
6180
6180
6380
3D80
0100
4300
C600
7C00
ENDCHAR

STARTCHAR h
ENCODING 104
SWIDTH 620 0
DWIDTH 10 0
BBX 10 12 1 0
BITMAP
3000
F000
3000
3000
6F00
7180
6180
6180
6300
C300
C340
C380
ENDCHAR

STARTCHAR i
ENCODING 105
SWIDTH 280 0
DWIDTH 5 0
BBX 4 11 1 0
BITMAP
30
30
00
30
F0
60
60
60
C0
D0
60
ENDCHAR

STARTCHAR j
ENCODING 106
SWIDTH 280 0
DWIDTH 5 0
BBX 9 15 -4 -4
BITMAP
0180
0180
0000
0180
0780
0300
0300
0300
0300
0600
0600
0600
4600
EC00
7800
ENDCHAR

STARTCHAR k
ENCODING 107
SWIDTH 600 0
DWIDTH 10 0
BBX 9 12 1 0
BITMAP
3000
F000
3000
6000
6380
6580
6C00
7800
6C00
CC00
C680
C700
ENDCHAR

STARTCHAR l
ENCODING 108
SWIDTH 280 0
DWIDTH 5 0
BBX 4 12 1 0
BITMAP
30
F0
30
60
60
60
60
C0
C0
C0
D0
60
ENDCHAR

STARTCHAR m
ENCODING 109
SWIDTH 880 0
DWIDTH 14 0
BBX 15 8 -1 0
BITMAP
3738
F9CC
318C
318C
3198
6318
631A
631C
ENDCHAR

STARTCHAR n
ENCODING 110
SWIDTH 620 0
DWIDTH 11 0
BBX 11 8 0 0
BITMAP
3780
F8C0
30C0
30C0
3180
6180
61A0
61C0
ENDCHAR

STARTCHAR o
ENCODING 111
SWIDTH 540 0
DWIDTH 9 0
BBX 9 8 0 0
BITMAP
1E00
7100
6180
C180
C180
C300
4700
3C00
ENDCHAR

STARTCHAR p
ENCODING 112
SWIDTH 600 0
DWIDTH 10 0
BBX 11 12 -1 -4
BITMAP
1BC0
7C60
1860
1860
3060
30C0
31C0
3F00
6000
6000
6000
F000
ENDCHAR

STARTCHAR q
ENCODING 113
SWIDTH 560 0
DWIDTH 9 0
BBX 9 12 0 -4
BITMAP
1C80
7380
6180
C300
C300
C300
C700
7B00
0600
0600
0600
0F00
ENDCHAR

STARTCHAR r
ENCODING 114
SWIDTH 400 0
DWIDTH 6 0
BBX 7 8 0 0
BITMAP
36
FA
30
30
30
60
60
60
ENDCHAR

STARTCHAR s
ENCODING 115
SWIDTH 540 0
DWIDTH 9 0
BBX 9 8 0 0
BITMAP
1F00
2380
6100
7C00
1F00
4300
E200
7C00
ENDCHAR

STARTCHAR t
ENCODING 116
SWIDTH 340 0
DWIDTH 6 0
BBX 6 11 1 0
BITMAP
10
10
30
FC
30
60
60
60
C0
D0
60
ENDCHAR

STARTCHAR u
ENCODING 117
SWIDTH 620 0
DWIDTH 10 0
BBX 10 8 0 0
BITMAP
38C0
F0C0
3180
3180
6180
6300
6340
3D80
ENDCHAR

STARTCHAR v
ENCODING 118
SWIDTH 540 0
DWIDTH 9 0
BBX 8 8 0 0
BITMAP
33
F3
31
61
61
62
66
38
ENDCHAR

STARTCHAR w
ENCODING 119
SWIDTH 880 0
DWIDTH 14 0
BBX 14 8 0 0
BITMAP
38CC
F0CC
30C4
3184
6184
6188
6398
3CE0
ENDCHAR

STARTCHAR x
ENCODING 120
SWIDTH 540 0
DWIDTH 9 0
BBX 10 8 0 0
BITMAP
30C0
79C0
1A00
0C00
1C00
1600
E680
C300
ENDCHAR

STARTCHAR y
ENCODING 121
SWIDTH 600 0
DWIDTH 10 0
BBX 10 12 0 -4
BITMAP
38C0
F0C0
3180
3180
6180
6300
6300
3F00
0600
4600
CC00
7800
ENDCHAR

STARTCHAR z
ENCODING 122
SWIDTH 520 0
DWIDTH 8 0
BBX 9 8 0 0
BITMAP
3F80
6300
4600
0C00
1800
3100
6300
FE00
ENDCHAR

STARTCHAR braceleft
ENCODING 123
SWIDTH 360 0
DWIDTH 6 0
BBX 5 14 2 -2
BITMAP
18
20
20
20
20
40
80
40
40
40
80
80
80
60
ENDCHAR

STARTCHAR bar
ENCODING 124
SWIDTH 600 0
DWIDTH 10 0
BBX 1 12 5 0
BITMAP
80
80
80
80
80
80
80
80
80
80
80
80
ENDCHAR

STARTCHAR braceright
ENCODING 125
SWIDTH 380 0
DWIDTH 6 0
BBX 5 14 0 -2
BITMAP
30
08
08
10
10
10
08
10
20
20
20
20
20
C0
ENDCHAR

STARTCHAR asciitilde
ENCODING 126
SWIDTH 600 0
DWIDTH 10 0
BBX 8 3 1 3
BITMAP
71
DB
8E
ENDCHAR

STARTCHAR exclamdown
ENCODING 161
SWIDTH 320 0
DWIDTH 5 0
BBX 4 12 0 -4
BITMAP
30
30
00
20
20
20
60
60
E0
C0
C0
C0
ENDCHAR

STARTCHAR cent
ENCODING 162
SWIDTH 620 0
DWIDTH 10 0
BBX 8 12 2 0
BITMAP
04
04
1C
7F
6B
C8
D8
D0
D2
7C
20
20
ENDCHAR

STARTCHAR sterling
ENCODING 163
SWIDTH 620 0
DWIDTH 10 0
BBX 12 12 -1 0
BITMAP
01E0
0610
0430
0C30
0C00
3F80
0C00
0C00
0CC0
7E20
8F60
73C0
ENDCHAR

STARTCHAR currency
ENCODING 164
SWIDTH 620 0
DWIDTH 10 0
BBX 8 8 1 2
BITMAP
5A
E7
42
81
81
42
E7
5A
ENDCHAR

STARTCHAR yen
ENCODING 165
SWIDTH 620 0
DWIDTH 10 0
BBX 11 12 1 0
BITMAP
79E0
3080
1900
1900
FBC0
1A00
0C00
FF80
1800
1800
1800
7E00
ENDCHAR

STARTCHAR brokenbar
ENCODING 166
SWIDTH 600 0
DWIDTH 10 0
BBX 1 12 5 0
BITMAP
80
80
80
80
00
00
00
00
80
80
80
80
ENDCHAR

STARTCHAR section
ENCODING 167
SWIDTH 620 0
DWIDTH 11 0
BBX 11 15 0 -3
BITMAP
07C0
1860
3060
3000
1E00
2F80
61C0
4040
70C0
3E80
0F00
0180
C180
C300
7C00
ENDCHAR

STARTCHAR dieresis
ENCODING 168
SWIDTH 420 0
DWIDTH 7 0
BBX 5 2 3 9
BITMAP
D8
D8
ENDCHAR

STARTCHAR copyright
ENCODING 169
SWIDTH 740 0
DWIDTH 13 0
BBX 12 12 1 0
BITMAP
0F00
30C0
4020
47A0
8890
9010
9010
8890
4720
4020
30C0
0F00
ENDCHAR

STARTCHAR ordfeminine
ENCODING 170
SWIDTH 440 0
DWIDTH 7 0
BBX 7 7 1 5
BITMAP
1E
22
44
4C
36
00
FC
ENDCHAR

STARTCHAR guillemotleft
ENCODING 171
SWIDTH 300 0
DWIDTH 5 0
BBX 5 5 1 2
BITMAP
28
50
A0
A0
50
ENDCHAR

STARTCHAR logicalnot
ENCODING 172
SWIDTH 600 0
DWIDTH 10 0
BBX 8 5 1 2
BITMAP
FF
01
01
01
01
ENDCHAR

STARTCHAR hyphen
ENCODING 173
SWIDTH 320 0
DWIDTH 5 0
BBX 4 1 0 4
BITMAP
F0
ENDCHAR

STARTCHAR registered
ENCODING 174
SWIDTH 740 0
DWIDTH 12 0
BBX 12 12 1 0
BITMAP
0F00
30C0
4020
5E20
8910
8910
8E10
8910
5DA0
4020
30C0
0F00
ENDCHAR

STARTCHAR macron
ENCODING 175
SWIDTH 440 0
DWIDTH 7 0
BBX 6 1 3 9
BITMAP
FC
ENDCHAR

STARTCHAR degree
ENCODING 176
SWIDTH 400 0
DWIDTH 7 0
BBX 5 5 2 7
BITMAP
70
88
88
88
70
ENDCHAR

STARTCHAR plusminus
ENCODING 177
SWIDTH 600 0
DWIDTH 10 0
BBX 9 9 1 0
BITMAP
0800
0800
0800
FF80
0800
0800
0800
0000
FF80
ENDCHAR

STARTCHAR twosuperior
ENCODING 178
SWIDTH 372 0
DWIDTH 6 0
BBX 6 7 1 5
BITMAP
38
64
0C
18
30
44
F8
ENDCHAR

STARTCHAR threesuperior
ENCODING 179
SWIDTH 372 0
DWIDTH 6 0
BBX 7 7 1 5
BITMAP
3C
66
04
18
04
CC
78
ENDCHAR

STARTCHAR acute
ENCODING 180
SWIDTH 320 0
DWIDTH 5 0
BBX 3 3 3 9
BITMAP
20
60
80
ENDCHAR

STARTCHAR mu
ENCODING 181
SWIDTH 620 0
DWIDTH 11 0
BBX 10 11 0 -3
BITMAP
38C0
F0C0
3180
3180
6180
6300
6340
7D80
C000
C000
C000
ENDCHAR

STARTCHAR paragraph
ENCODING 182
SWIDTH 620 0
DWIDTH 10 0
BBX 10 12 1 0
BITMAP
3FC0
7D00
FD00
F900
FA00
FA00
7A00
1200
1400
1400
1400
7F00
ENDCHAR

STARTCHAR periodcentered
ENCODING 183
SWIDTH 300 0
DWIDTH 5 0
BBX 2 2 2 4
BITMAP
C0
C0
ENDCHAR

STARTCHAR cedilla
ENCODING 184
SWIDTH 320 0
DWIDTH 5 0
BBX 3 3 1 -3
BITMAP
C0
20
C0
ENDCHAR

STARTCHAR onesuperior
ENCODING 185
SWIDTH 372 0
DWIDTH 6 0
BBX 4 7 2 5
BITMAP
10
70
20
20
60
40
E0
ENDCHAR

STARTCHAR ordmasculine
ENCODING 186
SWIDTH 400 0
DWIDTH 7 0
BBX 7 7 1 5
BITMAP
1C
22
42
44
38
00
FC
ENDCHAR

STARTCHAR guillemotright
ENCODING 187
SWIDTH 300 0
DWIDTH 5 0
BBX 5 5 0 2
BITMAP
50
28
28
50
A0
ENDCHAR

STARTCHAR onequarter
ENCODING 188
SWIDTH 930 0
DWIDTH 15 0
BBX 12 12 1 0
BITMAP
1040
70C0
2180
2100
6300
4630
E470
0CA0
1960
13F0
3040
20E0
ENDCHAR

STARTCHAR onehalf
ENCODING 189
SWIDTH 930 0
DWIDTH 15 0
BBX 13 12 1 0
BITMAP
1040
70C0
2180
2100
6300
4670
E4C8
0C18
1830
1060
3088
21F0
ENDCHAR

STARTCHAR threequarters
ENCODING 190
SWIDTH 930 0
DWIDTH 16 0
BBX 14 12 0 0
BITMAP
3C10
6630
0460
1840
04C0
CD8C
791C
0328
0658
04FC
0C10
0838
ENDCHAR

STARTCHAR questiondown
ENCODING 191
SWIDTH 540 0
DWIDTH 9 0
BBX 9 12 -1 -4
BITMAP
0300
0300
0000
0200
0200
0C00
3800
6000
E180
C180
6300
3C00
ENDCHAR

STARTCHAR Agrave
ENCODING 192
SWIDTH 700 0
DWIDTH 11 0
BBX 12 13 -1 0
BITMAP
0200
0300
0080
0000
0180
0180
0380
04C0
08C0
1FC0
2060
6060
F0F0
ENDCHAR

STARTCHAR Aacute
ENCODING 193
SWIDTH 700 0
DWIDTH 11 0
BBX 12 13 -1 0
BITMAP
0040
00C0
0100
0000
0180
0180
0380
04C0
08C0
1FC0
2060
6060
F0F0
ENDCHAR

STARTCHAR Acircumflex
ENCODING 194
SWIDTH 700 0
DWIDTH 11 0
BBX 12 12 -1 0
BITMAP
0100
06C0
0000
0180
0180
0380
04C0
08C0
1FC0
2060
6060
F0F0
ENDCHAR

STARTCHAR Atilde
ENCODING 195
SWIDTH 700 0
DWIDTH 11 0
BBX 12 12 -1 0
BITMAP
01A0
02C0
0000
0180
0180
0380
04C0
08C0
1FC0
2060
6060
F0F0
ENDCHAR

STARTCHAR Adieresis
ENCODING 196
SWIDTH 700 0
DWIDTH 11 0
BBX 12 12 -1 0
BITMAP
06C0
06C0
0000
0180
0180
0380
04C0
08C0
1FC0
2060
6060
F0F0
ENDCHAR

STARTCHAR Aring
ENCODING 197
SWIDTH 700 0
DWIDTH 11 0
BBX 12 13 -1 0
BITMAP
0180
0240
0240
0180
0180
0180
0380
04C0
08C0
1FC0
2060
6060
F0F0
ENDCHAR

STARTCHAR AE
ENCODING 198
SWIDTH 1220 0
DWIDTH 20 0
BBX 21 12 0 0
BITMAP
000FF8
001618
002608
004648
008CC0
01FF80
020D80
040C80
081800
101830
301860
F87FE0
ENDCHAR

STARTCHAR Ccedilla
ENCODING 199
SWIDTH 720 0
DWIDTH 12 0
BBX 11 15 1 -3
BITMAP
07A0
1860
3020
6020
6000
C000
C000
C000
C020
6040
60C0
1F00
0C00
0200
0C00
ENDCHAR

STARTCHAR Egrave
ENCODING 200
SWIDTH 680 0
DWIDTH 11 0
BBX 11 13 0 0
BITMAP
0800
0C00
0200
0000
3FE0
1860
1920
3F20
3600
3240
60C0
6180
FF80
ENDCHAR

STARTCHAR Eacute
ENCODING 201
SWIDTH 680 0
DWIDTH 11 0
BBX 11 13 0 0
BITMAP
0080
0180
0200
0000
3FE0
1860
1920
3F20
3600
3240
60C0
6180
FF80
ENDCHAR

STARTCHAR Ecircumflex
ENCODING 202
SWIDTH 680 0
DWIDTH 11 0
BBX 11 12 0 0
BITMAP
0100
06C0
0000
3FE0
1860
1920
3F20
3600
3240
60C0
6180
FF80
ENDCHAR

STARTCHAR Edieresis
ENCODING 203
SWIDTH 680 0
DWIDTH 11 0
BBX 11 12 0 0
BITMAP
0D80
0D80
0000
3FE0
1860
1920
3F20
3600
3240
60C0
6180
FF80
ENDCHAR

STARTCHAR Igrave
ENCODING 204
SWIDTH 320 0
DWIDTH 5 0
BBX 6 13 0 0
BITMAP
20
30
08
00
3C
18
18
30
30
30
60
60
F0
ENDCHAR

STARTCHAR Iacute
ENCODING 205
SWIDTH 320 0
DWIDTH 5 0
BBX 6 13 0 0
BITMAP
04
0C
10
00
3C
18
18
30
30
30
60
60
F0
ENDCHAR

STARTCHAR Icircumflex
ENCODING 206
SWIDTH 320 0
DWIDTH 5 0
BBX 7 12 0 0
BITMAP
08
36
00
3C
18
18
30
30
30
60
60
F0
ENDCHAR

STARTCHAR Idieresis
ENCODING 207
SWIDTH 320 0
DWIDTH 5 0
BBX 7 12 0 0
BITMAP
36
36
00
3C
18
18
30
30
30
60
60
F0
ENDCHAR

STARTCHAR Eth
ENCODING 208
SWIDTH 740 0
DWIDTH 12 0
BBX 13 12 0 0
BITMAP
3FC0
1830
1810
1818
3018
FE18
3018
3030
6030
6060
60C0
FF00
ENDCHAR

STARTCHAR Ntilde
ENCODING 209
SWIDTH 720 0
DWIDTH 12 0
BBX 12 12 1 0
BITMAP
0340
0580
0000
3870
1C20
1C20
2E40
2640
2740
4380
4180
E080
ENDCHAR

STARTCHAR Ograve
ENCODING 210
SWIDTH 760 0
DWIDTH 13 0
BBX 12 13 1 0
BITMAP
0400
0600
0100
0000
0F80
3860
6060
6030
C030
C060
6060
61C0
1F00
ENDCHAR

STARTCHAR Oacute
ENCODING 211
SWIDTH 760 0
DWIDTH 13 0
BBX 12 13 1 0
BITMAP
0040
00C0
0100
0000
0F80
3860
6060
6030
C030
C060
6060
61C0
1F00
ENDCHAR

STARTCHAR Ocircumflex
ENCODING 212
SWIDTH 760 0
DWIDTH 13 0
BBX 12 12 1 0
BITMAP
0100
06C0
0000
0F80
3860
6060
6030
C030
C060
6060
61C0
1F00
ENDCHAR

STARTCHAR Otilde
ENCODING 213
SWIDTH 760 0
DWIDTH 13 0
BBX 12 12 1 0
BITMAP
0340
0580
0000
0F80
3860
6060
6030
C030
C060
6060
61C0
1F00
ENDCHAR

STARTCHAR Odieresis
ENCODING 214
SWIDTH 760 0
DWIDTH 13 0
BBX 12 12 1 0
BITMAP
06C0
06C0
0000
0F80
3860
6060
6030
C030
C060
6060
61C0
1F00
ENDCHAR

STARTCHAR multiply
ENCODING 215
SWIDTH 600 0
DWIDTH 10 0
BBX 8 8 2 1
BITMAP
81
42
24
18
18
24
42
81
ENDCHAR

STARTCHAR Oslash
ENCODING 216
SWIDTH 760 0
DWIDTH 13 0
BBX 12 14 1 -1
BITMAP
0020
07C0
18E0
3160
6130
6230
C230
C430
C460
C860
68C0
7180
3E00
4000
ENDCHAR

STARTCHAR Ugrave
ENCODING 217
SWIDTH 720 0
DWIDTH 12 0
BBX 13 13 1 0
BITMAP
0400
0600
0100
0000
7878
3030
6020
6020
6040
C040
C080
6180
3E00
ENDCHAR

STARTCHAR Uacute
ENCODING 218
SWIDTH 720 0
DWIDTH 12 0
BBX 13 13 1 0
BITMAP
0080
0180
0200
0000
7878
3030
6020
6020
6040
C040
C080
6180
3E00
ENDCHAR

STARTCHAR Ucircumflex
ENCODING 219
SWIDTH 720 0
DWIDTH 12 0
BBX 13 12 1 0
BITMAP
0200
0D80
0000
7878
3030
6020
6020
6040
C040
C080
6180
3E00
ENDCHAR

STARTCHAR Udieresis
ENCODING 220
SWIDTH 720 0
DWIDTH 12 0
BBX 13 12 1 0
BITMAP
06C0
06C0
0000
7878
3030
6020
6020
6040
C040
C080
6180
3E00
ENDCHAR

STARTCHAR Yacute
ENCODING 221
SWIDTH 660 0
DWIDTH 11 0
BBX 12 13 1 0
BITMAP
0100
0300
0400
0000
F0F0
6040
3080
3100
1A00
0C00
1C00
1800
3C00
ENDCHAR

STARTCHAR Thorn
ENCODING 222
SWIDTH 600 0
DWIDTH 10 0
BBX 10 12 0 0
BITMAP
3C00
1800
1800
1F80
30C0
30C0
30C0
3180
7F00
6000
6000
F000
ENDCHAR

STARTCHAR germandbls
ENCODING 223
SWIDTH 620 0
DWIDTH 10 0
BBX 12 14 -2 -2
BITMAP
01E0
0330
0610
0630
1E60
06C0
0C60
0C30
0C10
0C30
1860
17C0
3000
E000
ENDCHAR

STARTCHAR agrave
ENCODING 224
SWIDTH 620 0
DWIDTH 10 0
BBX 9 12 1 0
BITMAP
1000
1800
0400
0000
1F80
7180
6300
C300
C300
C600
C680
7B00
ENDCHAR

STARTCHAR aacute
ENCODING 225
SWIDTH 620 0
DWIDTH 10 0
BBX 9 12 1 0
BITMAP
0100
0300
0400
0000
1F80
7180
6300
C300
C300
C600
C680
7B00
ENDCHAR

STARTCHAR acircumflex
ENCODING 226
SWIDTH 620 0
DWIDTH 10 0
BBX 9 11 1 0
BITMAP
0400
1B00
0000
1F80
7180
6300
C300
C300
C600
C680
7B00
ENDCHAR

STARTCHAR atilde
ENCODING 227
SWIDTH 620 0
DWIDTH 10 0
BBX 9 11 1 0
BITMAP
0680
0B00
0000
1F80
7180
6300
C300
C300
C600
C680
7B00
ENDCHAR

STARTCHAR adieresis
ENCODING 228
SWIDTH 620 0
DWIDTH 10 0
BBX 9 11 1 0
BITMAP
0D80
0D80
0000
1F80
7180
6300
C300
C300
C600
C680
7B00
ENDCHAR

STARTCHAR aring
ENCODING 229
SWIDTH 620 0
DWIDTH 10 0
BBX 9 12 1 0
BITMAP
0600
0900
0900
0600
1F80
7180
6300
C300
C300
C600
C680
7B00
ENDCHAR

STARTCHAR ae
ENCODING 230
SWIDTH 880 0
DWIDTH 15 0
BBX 15 8 1 0
BITMAP
1E7C
23C6
0386
1F0C
63F0
C300
C708
79F0
ENDCHAR

STARTCHAR ccedilla
ENCODING 231
SWIDTH 480 0
DWIDTH 8 0
BBX 8 11 1 -3
BITMAP
1E
73
62
C0
C0
C0
C2
7C
30
08
30
ENDCHAR

STARTCHAR egrave
ENCODING 232
SWIDTH 540 0
DWIDTH 9 0
BBX 9 12 1 0
BITMAP
1000
1800
0400
0000
1F00
7180
6180
C300
FC00
C000
C200
7C00
ENDCHAR

STARTCHAR eacute
ENCODING 233
SWIDTH 540 0
DWIDTH 9 0
BBX 9 12 1 0
BITMAP
0200
0600
0800
0000
1F00
7180
6180
C300
FC00
C000
C200
7C00
ENDCHAR

STARTCHAR ecircumflex
ENCODING 234
SWIDTH 540 0
DWIDTH 9 0
BBX 9 11 1 0
BITMAP
0400
1B00
0000
1F00
7180
6180
C300
FC00
C000
C200
7C00
ENDCHAR

STARTCHAR edieresis
ENCODING 235
SWIDTH 540 0
DWIDTH 9 0
BBX 9 11 1 0
BITMAP
1B00
1B00
0000
1F00
7180
6180
C300
FC00
C000
C200
7C00
ENDCHAR

STARTCHAR igrave
ENCODING 236
SWIDTH 280 0
DWIDTH 5 0
BBX 4 12 1 0
BITMAP
40
60
10
00
30
F0
60
60
60
C0
D0
60
ENDCHAR

STARTCHAR iacute
ENCODING 237
SWIDTH 280 0
DWIDTH 5 0
BBX 5 12 1 0
BITMAP
08
18
20
00
30
F0
60
60
60
C0
D0
60
ENDCHAR

STARTCHAR icircumflex
ENCODING 238
SWIDTH 280 0
DWIDTH 5 0
BBX 5 11 1 0
BITMAP
20
D8
00
30
F0
60
60
60
C0
D0
60
ENDCHAR

STARTCHAR idieresis
ENCODING 239
SWIDTH 280 0
DWIDTH 5 0
BBX 5 11 1 0
BITMAP
D8
D8
00
30
F0
60
60
60
C0
D0
60
ENDCHAR

STARTCHAR eth
ENCODING 240
SWIDTH 540 0
DWIDTH 9 0
BBX 9 13 0 0
BITMAP
1000
0980
0E00
3600
0300
1F00
7180
6180
C180
C180
C300
4700
3C00
ENDCHAR

STARTCHAR ntilde
ENCODING 241
SWIDTH 620 0
DWIDTH 11 0
BBX 11 11 0 0
BITMAP
0680
0B00
0000
3780
F8C0
30C0
30C0
3180
6180
61A0
61C0
ENDCHAR

STARTCHAR ograve
ENCODING 242
SWIDTH 540 0
DWIDTH 9 0
BBX 9 12 0 0
BITMAP
1000
1800
0400
0000
1E00
7100
6180
C180
C180
C300
4700
3C00
ENDCHAR

STARTCHAR oacute
ENCODING 243
SWIDTH 540 0
DWIDTH 9 0
BBX 9 12 0 0
BITMAP
0200
0600
0800
0000
1E00
7100
6180
C180
C180
C300
4700
3C00
ENDCHAR

STARTCHAR ocircumflex
ENCODING 244
SWIDTH 540 0
DWIDTH 9 0
BBX 9 11 0 0
BITMAP
0400
1B00
0000
1E00
7100
6180
C180
C180
C300
4700
3C00
ENDCHAR

STARTCHAR otilde
ENCODING 245
SWIDTH 540 0
DWIDTH 9 0
BBX 9 11 0 0
BITMAP
0D00
1600
0000
1E00
7100
6180
C180
C180
C300
4700
3C00
ENDCHAR

STARTCHAR odieresis
ENCODING 246
SWIDTH 540 0
DWIDTH 9 0
BBX 9 11 0 0
BITMAP
1B00
1B00
0000
1E00
7100
6180
C180
C180
C300
4700
3C00
ENDCHAR

STARTCHAR divide
ENCODING 247
SWIDTH 600 0
DWIDTH 10 0
BBX 8 7 2 1
BITMAP
18
18
00
FF
00
18
18
ENDCHAR

STARTCHAR oslash
ENCODING 248
SWIDTH 540 0
DWIDTH 9 0
BBX 9 10 0 -1
BITMAP
0080
1F00
7300
6580
C980
C980
D300
6700
7C00
8000
ENDCHAR

STARTCHAR ugrave
ENCODING 249
SWIDTH 620 0
DWIDTH 10 0
BBX 10 12 0 0
BITMAP
0800
0C00
0200
0000
38C0
F0C0
3180
3180
6180
6300
6340
3D80
ENDCHAR

STARTCHAR uacute
ENCODING 250
SWIDTH 620 0
DWIDTH 10 0
BBX 10 12 0 0
BITMAP
0100
0300
0400
0000
38C0
F0C0
3180
3180
6180
6300
6340
3D80
ENDCHAR

STARTCHAR ucircumflex
ENCODING 251
SWIDTH 620 0
DWIDTH 10 0
BBX 10 11 0 0
BITMAP
0200
0D80
0000
38C0
F0C0
3180
3180
6180
6300
6340
3D80
ENDCHAR

STARTCHAR udieresis
ENCODING 252
SWIDTH 620 0
DWIDTH 10 0
BBX 10 11 0 0
BITMAP
0D80
0D80
0000
38C0
F0C0
3180
3180
6180
6300
6340
3D80
ENDCHAR

STARTCHAR yacute
ENCODING 253
SWIDTH 600 0
DWIDTH 10 0
BBX 10 16 0 -4
BITMAP
0080
0180
0200
0000
38C0
F0C0
3180
3180
6180
6300
6300
3F00
0600
4600
CC00
7800
ENDCHAR

STARTCHAR thorn
ENCODING 254
SWIDTH 600 0
DWIDTH 10 0
BBX 11 16 -1 -4
BITMAP
0C00
3C00
0C00
1800
1BC0
1C60
1860
1860
3060
30C0
31C0
3F00
6000
6000
6000
F000
ENDCHAR

STARTCHAR ydieresis
ENCODING 255
SWIDTH 600 0
DWIDTH 10 0
BBX 10 15 0 -4
BITMAP
0D80
0D80
0000
38C0
F0C0
3180
3180
6180
6300
6300
3F00
0600
4600
CC00
7800
ENDCHAR
ENDFONT
